# xmcd CD database file
#
# Track frame offsets:
#	150
#	26715
#	31668
#	35328
#	45887
#	52122
#	64291
#	67753
#	71509
#	73955
#	77433
#	116059
#	139644
#	155614
#	169866
#	190505
#	213922
#
# Disc length: 2922 seconds
#
# Revision: 1
# Processed by: cddbd v1.5.2PL0 Copyright (c) Steve Scherf et al.
# Submitted via: CDex 1.70beta2
#
DISCID=e50b6811
DTITLE=Mike Oldfield - Tubular Bells 2003
DYEAR=2003
DGENRE=Blues
TTITLE0=Introduction 
TTITLE1=Fast Guitars 
TTITLE2=Basses
TTITLE3=Latin
TTITLE4=A Minor Tune
TTITLE5=Blues 
TTITLE6=Thrash 
TTITLE7=Jazz 
TTITLE8=Ghost Bells 
TTITLE9=Russian
TTITLE10=Finale
TTITLE11=Harmonics
TTITLE12=Peace
TTITLE13=Bagpipe Guitars
TTITLE14=Caveman
TTITLE15=Ambient Guitars
TTITLE16=The Sailor´s Hornpipe
EXTD=YEAR: 2003
EXTT0=
EXTT1=
EXTT2=
EXTT3=
EXTT4=
EXTT5=
EXTT6=
EXTT7=
EXTT8=
EXTT9=
EXTT10=
EXTT11=
EXTT12=
EXTT13=
EXTT14=
EXTT15=
EXTT16=
PLAYORDER=
